<svg xmlns="http://www.w3.org/2000/svg" xml:space="preserve" width="507.817" height="66.263"><defs><clipPath clipPathUnits="userSpaceOnUse" id="a"><path d="M0 93.543h428.031V0H0Z"/></clipPath></defs><g clip-path="url(#a)" transform="matrix(1.33333 0 0 -1.33333 -31.496 95.625)"><path d="M0 0c1.767 0 2.951-1.116 3.404-2.837 1.562-.144 3.106-.297 4.629-.459C7.392.625 4.818 3.833 0 3.833c-3.846 0-6.774-2.442-7.86-5.815 1.544-.093 3.074-.195 4.59-.306C-2.674-.87-1.55 0 0 0" style="fill:#9faee5;fill-opacity:1;fill-rule:nonzero;stroke:none" transform="translate(118.398 61.551)"/><path d="M0 0h-4.838v-14.865c1.572.299 3.187.584 4.838.858z" style="fill:#9faee5;fill-opacity:1;fill-rule:nonzero;stroke:none" transform="translate(28.472 70.222)"/><path d="M0 0h3.958v4.084H0v4.304h-4.775V4.084h-2.011V0h2.011v-1.85c1.576.123 3.167.236 4.775.34z" style="fill:#9faee5;fill-opacity:1;fill-rule:nonzero;stroke:none" transform="translate(58.045 60.986)"/><path d="M0 0c1.172 0 2.086-.494 2.702-1.327 1.589.034 3.186.059 4.791.076C6.385 1.68 3.945 3.833 0 3.833c-3.73 0-6.599-2.295-7.76-5.51 1.629.075 3.271.141 4.924.197C-2.192-.547-1.23 0 0 0" style="fill:#9faee5;fill-opacity:1;fill-rule:nonzero;stroke:none" transform="translate(73.031 61.551)"/><path d="M0 0c.43.093.888.144 1.379.144h.252v4.995c-2.828.126-4.399-1.382-5.372-3.707v3.393h-4.775V.077l.261.001C-5.482.078-2.729.051 0 0" style="fill:#9faee5;fill-opacity:1;fill-rule:nonzero;stroke:none" transform="translate(93.298 60.245)"/><path d="M0 0h.251v4.995c-2.827.125-4.398-1.382-5.372-3.707v3.393h-4.774V-.255c2.482-.073 4.942-.166 7.372-.281C-1.807-.179-.961 0 0 0" style="fill:#9faee5;fill-opacity:1;fill-rule:nonzero;stroke:none" transform="translate(107.81 60.39)"/><path d="M0 0v.063c0 2.293 1.759 3.895 4.084 3.895 2.325 0 4.115-1.602 4.115-3.895V0a4.03 4.03 0 0 0-.192-1.242c1.675-.277 3.311-.566 4.904-.869v9.713H8.136V5.403C6.848 6.817 5.309 7.917 2.702 7.917c-3.742 0-7.238-2.658-7.456-7.391C-3.143.342-1.557.147.003-.058.003-.038 0-.02 0 0" style="fill:#9faee5;fill-opacity:1;fill-rule:nonzero;stroke:none" transform="translate(133.541 57.468)"/><path d="M0 0c.316.15 1.015.297 1.359.297C1.703.297 2.403.15 2.718 0 3.934-.578 4.483-1.442 4.64-2.647c1.514.159 3.049.309 4.6.449C8.705.252 7.237 2.319 4.972 3.47c-1.041.528-2.248.963-3.613.963-1.365 0-2.572-.435-3.613-.963-2.824-1.435-4.411-4.292-4.491-7.541 1.56.229 3.151.447 4.769.654C-1.968-1.788-1.462-.695 0 0" style="fill:#9faee5;fill-opacity:1;fill-rule:nonzero;stroke:none" transform="translate(39.494 60.953)"/><path d="M0 0c0-5.152 3.738-8.702 8.796-8.702 3.047 0 5.309 1.194 6.88 3.142l-2.733 2.419c-1.32-1.226-2.482-1.728-4.084-1.728-2.136 0-3.644 1.131-4.115 3.298h11.717c.032.44.063.88.063 1.257 0 .684-.059 1.357-.166 2.013-1.523.162-3.067.315-4.629.459a6.24 6.24 0 0 0 .146-.744H4.681c.081.469.208.901.373 1.293-1.515.111-3.045.212-4.589.306A9.605 9.605 0 0 1 0 .063Z" style="fill:#039;fill-opacity:1;fill-rule:nonzero;stroke:none" transform="translate(110.073 56.556)"/><path d="M0 0v7.983c-1.651-.274-3.266-.56-4.838-.859V0Z" style="fill:#039;fill-opacity:1;fill-rule:nonzero;stroke:none" transform="translate(28.472 48.232)"/><path d="M0 0c1.602 0 2.764.377 3.77.974v3.832a4.861 4.861 0 0 0-2.357-.597c-1.067 0-1.539.535-1.539 1.634v5.684a359.893 359.893 0 0 1-4.775-.34V5.058C-4.901 1.162-2.922 0 0 0" style="fill:#039;fill-opacity:1;fill-rule:nonzero;stroke:none" transform="translate(58.171 47.95)"/><path d="M0 0c0-5.152 3.738-8.702 8.796-8.702 3.047 0 5.309 1.194 6.88 3.142l-2.733 2.419c-1.32-1.226-2.482-1.728-4.084-1.728-2.136 0-3.644 1.131-4.115 3.298h11.717c.032.44.063.88.063 1.257 0 1.425-.235 2.81-.706 4.057a419.03 419.03 0 0 1-4.791-.075c.44-.595.73-1.363.848-2.254H4.681c.142.82.416 1.532.808 2.101a427.28 427.28 0 0 1-4.924-.197A9.583 9.583 0 0 1 0 .063Z" style="fill:#039;fill-opacity:1;fill-rule:nonzero;stroke:none" transform="translate(64.706 56.556)"/><path d="M0 0v6.22c0 3.398 1.395 5.288 3.741 5.793-2.729.051-5.482.078-8.254.078l-.262-.001V0Z" style="fill:#039;fill-opacity:1;fill-rule:nonzero;stroke:none" transform="translate(89.557 48.232)"/><path d="M0 0v6.22c0 2.803.949 4.58 2.597 5.402-2.43.114-4.889.207-7.372.28V0Z" style="fill:#039;fill-opacity:1;fill-rule:nonzero;stroke:none" transform="translate(102.69 48.232)"/><path d="M0 0c0-4.995 3.55-7.853 7.477-7.853 2.544 0 4.083 1.036 5.497 2.733v-.817c0-3.016-1.539-4.587-4.806-4.587-2.231 0-3.959.566-5.686 1.54L.848-12.566c2.136-1.131 4.712-1.759 7.445-1.759 3.267 0 5.686.691 7.257 2.262 1.414 1.414 2.136 3.613 2.136 6.629v3.323c-1.593.303-3.229.592-4.904.869-.52-1.609-2.047-2.653-3.923-2.653-2.305 0-4.052 1.545-4.081 3.837-1.56.205-3.146.4-4.757.584C.014.372 0 .222 0 .063Z" style="fill:#039;fill-opacity:1;fill-rule:nonzero;stroke:none" transform="translate(128.766 57.468)"/><path d="M0 0v-9.257h4.775V-.87c0 .733-.081 1.446-.231 2.13-1.551-.14-3.086-.29-4.6-.449A6.1 6.1 0 0 0 0 0" style="fill:#039;fill-opacity:1;fill-rule:nonzero;stroke:none" transform="translate(44.19 57.495)"/><path d="M0 0v-8.325h4.775V.933l.001.041A270.397 270.397 0 0 1 .008.32C.006.234 0 .149 0 .063Z" style="fill:#039;fill-opacity:1;fill-rule:nonzero;stroke:none" transform="translate(32.741 56.562)"/><path d="M171.122 70.969h71.547V22.772h-71.547z" style="fill:#039;fill-opacity:1;fill-rule:nonzero;stroke:none"/><path d="M0 0h-73.048v-49.697H0V-1.5Zm-1.5-48.197h-70.048V-1.5H-1.5Z" style="fill:#fff;fill-opacity:1;fill-rule:nonzero;stroke:none" transform="translate(243.42 71.719)"/><path d="m0 0 .566 1.769.567-1.767h1.849l-1.5-1.077.563-1.744L.566-1.74-.911-2.819l.561 1.744-1.5 1.077z" style="fill:#fc0;fill-opacity:1;fill-rule:nonzero;stroke:none" transform="translate(219.564 55.223)"/><path d="m0 0 .567 1.768.565-1.764h1.852l-1.502-1.08.563-1.744L.567-1.742-.913-2.82l.563 1.744-1.5 1.08z" style="fill:#fc0;fill-opacity:1;fill-rule:nonzero;stroke:none" transform="translate(206.315 62.865)"/><path d="m0 0 1.854-.004.563 1.771L2.985 0h1.849l-1.5-1.078.563-1.745-1.48 1.077L.94-2.823l.562 1.745z" style="fill:#fc0;fill-opacity:1;fill-rule:nonzero;stroke:none" transform="translate(189.164 47.564)"/><path d="m0 0-1.478 1.082L-2.955 0l.563 1.744-1.501 1.08 1.849-.002.566 1.769.567-1.767H.938l-1.501-1.08z" style="fill:#fc0;fill-opacity:1;fill-rule:nonzero;stroke:none" transform="translate(195.113 37.078)"/><path d="m0 0 .563-1.742L-.915-.664l-1.477-1.078L-1.828 0-3.33 1.079l1.849-.001.566 1.769.567-1.768h1.849z" style="fill:#fc0;fill-opacity:1;fill-rule:nonzero;stroke:none" transform="translate(194.55 54.123)"/><path d="m0 0 .566 1.769.567-1.767h1.85l-1.5-1.08.561-1.743L.568-1.742-.909-2.821l.56 1.743-1.5 1.08z" style="fill:#fc0;fill-opacity:1;fill-rule:nonzero;stroke:none" transform="translate(198.665 60.81)"/><path d="m0 0-1.478 1.078L-2.955 0l.562 1.746-1.5 1.077 1.85-.001.564 1.767.567-1.766H.939l-1.5-1.077z" style="fill:#fc0;fill-opacity:1;fill-rule:nonzero;stroke:none" transform="translate(200.721 31.47)"/><path d="m0 0-1.477 1.077L-2.956 0l.56 1.744-1.501 1.079 1.853-.002.565 1.769.567-1.767H.939L-.564 1.744Z" style="fill:#fc0;fill-opacity:1;fill-rule:nonzero;stroke:none" transform="translate(208.361 29.44)"/><path d="m0 0-1.48 1.078L-2.957 0l.561 1.746-1.499 1.077 1.85-.001.565 1.767.567-1.766H.938L-.565 1.746Z" style="fill:#fc0;fill-opacity:1;fill-rule:nonzero;stroke:none" transform="translate(216 31.47)"/><path d="m0 0 .561-1.744L-.913-.662l-1.481-1.082L-1.832 0-3.33 1.081l1.848-.003.567 1.769.565-1.766h1.851z" style="fill:#fc0;fill-opacity:1;fill-rule:nonzero;stroke:none" transform="translate(215.46 59.731)"/><path d="m0 0-1.479 1.082L-2.957 0l.562 1.744-1.5 1.08 1.85-.002.566 1.769.567-1.767H.937l-1.5-1.08z" style="fill:#fc0;fill-opacity:1;fill-rule:nonzero;stroke:none" transform="translate(221.609 37.078)"/><path d="m0 0-1.479 1.081L-2.953 0l.56 1.744-1.5 1.077 1.85-.002.564 1.771.568-1.769H.94L-.563 1.744Z" style="fill:#fc0;fill-opacity:1;fill-rule:nonzero;stroke:none" transform="translate(223.638 44.763)"/><path d="m0 0 2.261-.717c-.347-1.26-.923-2.196-1.729-2.807-.806-.612-1.829-.918-3.068-.918-1.533 0-2.794.524-3.781 1.571-.987 1.048-1.48 2.48-1.48 4.297 0 1.922.496 3.414 1.488 4.477.993 1.064 2.297 1.596 3.914 1.596 1.413 0 2.561-.418 3.443-1.253.525-.493.918-1.202 1.181-2.127l-2.308-.551C-.215 4.167-.5 4.64-.933 4.986c-.433.347-.96.52-1.58.52-.855 0-1.55-.308-2.083-.922-.533-.614-.799-1.609-.799-2.984 0-1.46.262-2.5.788-3.12.524-.62 1.207-.929 2.047-.929.62 0 1.153.197 1.599.591C-.515-1.465-.194-.846 0 0" style="fill:#039;fill-opacity:1;fill-rule:nonzero;stroke:none" transform="translate(260.403 54.973)"/><path d="M0 0c0-.83.197-1.465.591-1.906.394-.442.879-.662 1.457-.662.577 0 1.062.22 1.453.662.392.441.587 1.082.587 1.922 0 .819-.195 1.449-.587 1.89a1.865 1.865 0 0 1-1.453.661c-.578 0-1.063-.22-1.457-.661C.197 1.465 0 .829 0 0m-2.268.118c0 .735.181 1.446.543 2.134a3.735 3.735 0 0 0 1.54 1.576c.664.362 1.406.543 2.225.543 1.266 0 2.303-.411 3.111-1.232.809-.823 1.213-1.861 1.213-3.116 0-1.265-.408-2.314-1.224-3.146-.817-.832-1.845-1.249-3.084-1.249-.767 0-1.498.174-2.194.52a3.578 3.578 0 0 0-1.587 1.524c-.362.67-.543 1.485-.543 2.446" style="fill:#039;fill-opacity:1;fill-rule:nonzero;stroke:none" transform="translate(266.404 54.91)"/><path d="M274.249 56.021h4.348v-2.213h-4.348z" style="fill:#039;fill-opacity:1;fill-rule:nonzero;stroke:none"/><path d="M0 0h1.229v.631c0 .703.075 1.228.224 1.575.15.347.425.629.827.847.402.218.91.327 1.524.327.631 0 1.247-.095 1.851-.284l-.299-1.544a4.37 4.37 0 0 1-1.016.126c-.32 0-.55-.074-.689-.224-.139-.15-.209-.437-.209-.863V0h1.654v-1.74H3.442v-6.624H1.229v6.624H0Z" style="fill:#039;fill-opacity:1;fill-rule:nonzero;stroke:none" transform="translate(278.904 59.092)"/><path d="M0 0v1.252A3.228 3.228 0 0 0-1.201.197a3.36 3.36 0 0 0-1.571-.386c-.562 0-1.067.124-1.513.371a2.182 2.182 0 0 0-.969 1.039c-.199.446-.299 1.063-.299 1.851v5.292h2.213V4.521c0-1.176.041-1.897.122-2.162a1.18 1.18 0 0 1 .446-.63c.214-.155.488-.233.818-.233.379 0 .717.105 1.017.312.299.207.503.464.614.771.11.308.165 1.06.165 2.257v3.528h2.214V0Z" style="fill:#039;fill-opacity:1;fill-rule:nonzero;stroke:none" transform="translate(290.75 50.728)"/><path d="M0 0h-2.213v4.269c0 .903-.048 1.487-.142 1.752a1.239 1.239 0 0 1-.461.619c-.213.147-.469.22-.768.22-.383 0-.727-.105-1.032-.315a1.589 1.589 0 0 1-.626-.835c-.113-.346-.169-.987-.169-1.922V0h-2.214v8.364h2.056V7.136c.73.945 1.649 1.418 2.757 1.418a3.32 3.32 0 0 0 1.339-.264c.404-.176.71-.4.917-.674.208-.272.352-.583.434-.929.081-.346.122-.842.122-1.489Z" style="fill:#039;fill-opacity:1;fill-rule:nonzero;stroke:none" transform="translate(302.707 50.728)"/><path d="M0 0c0-.893.123-1.538.37-1.937.357-.578.856-.867 1.497-.867.509 0 .942.217 1.299.65.357.433.536 1.081.536 1.941 0 .961-.174 1.653-.52 2.076-.347.422-.79.634-1.331.634-.525 0-.965-.209-1.32-.626C.177 1.453 0 .83 0 0m5.907-4.363H3.852v1.228c-.342-.477-.745-.833-1.21-1.067a3.095 3.095 0 0 0-1.406-.351c-.961 0-1.784.388-2.469 1.162-.685.775-1.028 1.855-1.028 3.242 0 1.418.334 2.495 1.001 3.233.666.737 1.509 1.106 2.528 1.106.935 0 1.743-.388 2.426-1.166v4.16h2.213z" style="fill:#039;fill-opacity:1;fill-rule:nonzero;stroke:none" transform="translate(306.716 55.091)"/><path d="M0 0c-.016.641-.181 1.127-.496 1.461-.316.333-.699.5-1.15.5-.483 0-.882-.176-1.197-.527-.316-.353-.47-.83-.465-1.434Zm-.126-2.237 2.205-.37c-.283-.809-.731-1.425-1.343-1.847-.611-.423-1.377-.635-2.296-.635-1.454 0-2.531.476-3.229 1.426-.551.762-.827 1.723-.827 2.883 0 1.386.363 2.471 1.087 3.257.725.785 1.641 1.177 2.749 1.177 1.244 0 2.226-.411 2.946-1.232C1.885 1.6 2.229.341 2.197-1.355h-5.545c.016-.657.195-1.167.536-1.532a1.676 1.676 0 0 1 1.276-.548c.347 0 .638.095.874.285.237.188.415.493.536.913" style="fill:#039;fill-opacity:1;fill-rule:nonzero;stroke:none" transform="translate(319.775 55.627)"/><path d="M0 0c0-.893.123-1.538.37-1.937.357-.578.856-.867 1.497-.867.509 0 .942.217 1.299.65.357.433.536 1.081.536 1.941 0 .961-.174 1.653-.52 2.076-.347.422-.79.634-1.331.634-.525 0-.965-.209-1.32-.626C.177 1.453 0 .83 0 0m5.907-4.363H3.852v1.228c-.342-.477-.745-.833-1.21-1.067a3.095 3.095 0 0 0-1.406-.351c-.961 0-1.784.388-2.469 1.162-.685.775-1.028 1.855-1.028 3.242 0 1.418.334 2.495 1.001 3.233.666.737 1.509 1.106 2.528 1.106.935 0 1.743-.388 2.426-1.166v4.16h2.213z" style="fill:#039;fill-opacity:1;fill-rule:nonzero;stroke:none" transform="translate(325.54 55.091)"/><path d="M0 0c0-.866.137-1.507.41-1.922.383-.588.892-.882 1.527-.882.489 0 .905.209 1.249.626.344.418.516 1.075.516 1.974 0 .955-.173 1.644-.52 2.067-.347.422-.79.634-1.331.634-.53 0-.972-.206-1.323-.618C.176 1.467 0 .84 0 0m-2.197-4.363V7.184H.016v-4.16c.682.778 1.491 1.166 2.426 1.166 1.018 0 1.861-.369 2.528-1.106.667-.738 1-1.797 1-3.179 0-1.427-.34-2.528-1.02-3.3-.679-.771-1.505-1.158-2.477-1.158-.477 0-.949.12-1.413.359A3.383 3.383 0 0 0-.142-3.135v-1.228z" style="fill:#039;fill-opacity:1;fill-rule:nonzero;stroke:none" transform="translate(340.214 55.091)"/><path d="M0 0h2.355l2-5.938L6.309 0h2.292L5.647-8.049 5.12-9.506c-.195-.489-.38-.861-.556-1.119a2.431 2.431 0 0 0-.606-.626 2.66 2.66 0 0 0-.843-.374 4.384 4.384 0 0 0-1.13-.134c-.425 0-.843.045-1.253.134L.536-9.893c.346-.068.658-.102.937-.102.514 0 .895.151 1.142.453.247.302.436.687.567 1.154z" style="fill:#039;fill-opacity:1;fill-rule:nonzero;stroke:none" transform="translate(346.917 59.092)"/><path d="M0 0v-1.764h-1.512v-3.371c0-.682.014-1.081.043-1.193a.481.481 0 0 1 .197-.279.616.616 0 0 1 .374-.111c.205 0 .502.071.89.212l.189-1.717c-.514-.22-1.098-.331-1.748-.331-.399 0-.759.068-1.079.201-.321.134-.556.308-.706.52-.149.213-.253.501-.311.863-.047.257-.07.777-.07 1.56v3.646H-4.75V0h1.017v1.662l2.221 1.292V0Z" style="fill:#039;fill-opacity:1;fill-rule:nonzero;stroke:none" transform="translate(257.322 39.734)"/><path d="M0 0v-4.245c.714.835 1.567 1.252 2.56 1.252.509 0 .968-.095 1.378-.283.41-.19.718-.431.926-.725a2.64 2.64 0 0 0 .425-.977c.076-.357.114-.911.114-1.662v-4.907H3.19v4.419c0 .877-.042 1.434-.126 1.67a1.088 1.088 0 0 1-.445.562c-.213.14-.479.209-.8.209-.367 0-.695-.089-.984-.267-.289-.179-.501-.448-.634-.808C.067-6.121 0-6.653 0-7.356v-4.191h-2.213V0Z" style="fill:#039;fill-opacity:1;fill-rule:nonzero;stroke:none" transform="translate(261.063 42.917)"/><path d="M0 0c-.016.641-.181 1.127-.496 1.461-.316.333-.699.5-1.15.5-.483 0-.882-.176-1.197-.527-.316-.353-.47-.83-.465-1.434Zm-.126-2.237 2.205-.37c-.283-.809-.731-1.425-1.343-1.847-.611-.423-1.377-.635-2.296-.635-1.454 0-2.531.476-3.229 1.426-.551.762-.827 1.723-.827 2.883 0 1.386.363 2.471 1.087 3.257.725.785 1.641 1.177 2.749 1.177 1.244 0 2.226-.411 2.946-1.232C1.885 1.6 2.229.341 2.197-1.355h-5.545c.016-.657.195-1.167.536-1.532a1.676 1.676 0 0 1 1.276-.548c.347 0 .638.095.874.285.237.188.415.493.536.913" style="fill:#039;fill-opacity:1;fill-rule:nonzero;stroke:none" transform="translate(273.681 36.27)"/><path d="M0 0v11.547h8.562V9.594h-6.23V7.033h5.797V5.088H2.332V1.945h6.45V0Z" style="fill:#039;fill-opacity:1;fill-rule:nonzero;stroke:none" transform="translate(282.18 31.37)"/><path d="M0 0v1.252A3.228 3.228 0 0 0-1.201.197a3.36 3.36 0 0 0-1.571-.386c-.562 0-1.067.124-1.513.371a2.182 2.182 0 0 0-.969 1.039c-.199.446-.299 1.063-.299 1.851v5.292h2.213V4.521c0-1.176.041-1.897.122-2.162a1.18 1.18 0 0 1 .446-.63c.214-.155.488-.233.818-.233.379 0 .717.105 1.017.312.299.207.503.464.614.771.11.308.165 1.06.165 2.257v3.528h2.214V0Z" style="fill:#039;fill-opacity:1;fill-rule:nonzero;stroke:none" transform="translate(298.429 31.37)"/><path d="M0 0h-2.213v8.364h2.056V7.176c.351.561.668.931.949 1.11.281.179.6.268.957.268.504 0 .989-.139 1.457-.417l-.685-1.93c-.373.241-.72.362-1.04.362a1.23 1.23 0 0 1-.788-.257c-.215-.169-.384-.478-.507-.924C.062 4.941 0 4.007 0 2.583Z" style="fill:#039;fill-opacity:1;fill-rule:nonzero;stroke:none" transform="translate(304.895 31.37)"/><path d="M0 0c0-.83.197-1.465.591-1.906.394-.442.879-.662 1.457-.662.577 0 1.062.22 1.453.662.392.441.587 1.082.587 1.922 0 .819-.195 1.449-.587 1.89a1.865 1.865 0 0 1-1.453.661c-.578 0-1.063-.22-1.457-.661C.197 1.465 0 .829 0 0m-2.268.118c0 .735.181 1.446.543 2.134a3.735 3.735 0 0 0 1.54 1.576c.664.362 1.406.543 2.225.543 1.266 0 2.303-.411 3.111-1.232.809-.823 1.213-1.861 1.213-3.116 0-1.265-.408-2.314-1.224-3.146-.817-.832-1.845-1.249-3.084-1.249-.767 0-1.498.174-2.194.52a3.578 3.578 0 0 0-1.587 1.524c-.362.67-.543 1.485-.543 2.446" style="fill:#039;fill-opacity:1;fill-rule:nonzero;stroke:none" transform="translate(310.81 35.553)"/><path d="M0 0c0-.94.186-1.635.559-2.083.373-.449.827-.674 1.362-.674.515 0 .943.206 1.285.618.341.412.511 1.088.511 2.029 0 .877-.175 1.528-.527 1.953-.352.426-.788.638-1.308.638-.541 0-.989-.209-1.347-.627C.178 1.437 0 .819 0 0m-2.19 4.04h2.064V2.812c.268.419.63.761 1.087 1.024.456.263.963.393 1.52.393.971 0 1.796-.38 2.473-1.141.677-.762 1.016-1.822 1.016-3.183 0-1.396-.341-2.482-1.024-3.257-.682-.774-1.509-1.162-2.481-1.162-.462 0-.881.093-1.256.277-.376.183-.771.498-1.186.945v-4.214H-2.19Z" style="fill:#039;fill-opacity:1;fill-rule:nonzero;stroke:none" transform="translate(321.034 35.694)"/><path d="M0 0c-.016.641-.181 1.127-.496 1.461-.316.333-.699.5-1.15.5-.483 0-.882-.176-1.197-.527-.316-.353-.47-.83-.465-1.434Zm-.126-2.237 2.205-.37c-.283-.809-.731-1.425-1.343-1.847-.611-.423-1.377-.635-2.296-.635-1.454 0-2.531.476-3.229 1.426-.551.762-.827 1.723-.827 2.883 0 1.386.363 2.471 1.087 3.257.725.785 1.641 1.177 2.749 1.177 1.244 0 2.226-.411 2.946-1.232C1.885 1.6 2.229.341 2.197-1.355h-5.545c.016-.657.195-1.167.536-1.532a1.676 1.676 0 0 1 1.276-.548c.347 0 .638.095.874.285.237.188.415.493.536.913" style="fill:#039;fill-opacity:1;fill-rule:nonzero;stroke:none" transform="translate(333.73 36.27)"/><path d="M0 0a13.943 13.943 0 0 0-1.347-.338c-.614-.132-1.016-.261-1.205-.387-.289-.204-.433-.464-.433-.779 0-.309.115-.578.346-.804.231-.225.525-.338.883-.338.399 0 .779.131 1.142.394.267.199.443.443.527.732.058.189.087.549.087 1.08Zm-2.961 1.796-2.009.362c.226.809.615 1.407 1.166 1.796.551.389 1.37.583 2.457.583.987 0 1.722-.117 2.205-.35.483-.234.824-.531 1.02-.89.197-.36.296-1.021.296-1.982L2.15-1.268c0-.735.036-1.277.106-1.627.072-.348.204-.722.398-1.122H.465a8.129 8.129 0 0 0-.213.654 3.989 3.989 0 0 1-.079.26A3.98 3.98 0 0 0-1.04-3.93a3.485 3.485 0 0 0-1.378-.276c-.861 0-1.54.234-2.036.701-.496.468-.744 1.059-.744 1.773 0 .472.113.893.338 1.263.226.371.542.655.949.852.407.196.994.368 1.761.515 1.034.195 1.751.375 2.15.543v.221c0 .426-.105.729-.315.91-.21.181-.606.272-1.189.272-.394 0-.702-.077-.922-.233-.22-.155-.399-.426-.535-.815" style="fill:#039;fill-opacity:1;fill-rule:nonzero;stroke:none" transform="translate(342.347 35.387)"/><path d="M0 0h-2.213v4.269c0 .903-.048 1.487-.142 1.752a1.239 1.239 0 0 1-.461.619c-.213.147-.469.22-.768.22-.383 0-.727-.105-1.032-.315a1.589 1.589 0 0 1-.626-.835c-.113-.346-.169-.987-.169-1.922V0h-2.214v8.364h2.056V7.136c.73.945 1.649 1.418 2.757 1.418a3.32 3.32 0 0 0 1.339-.264c.404-.176.71-.4.917-.674.208-.272.352-.583.434-.929.081-.346.122-.842.122-1.489Z" style="fill:#039;fill-opacity:1;fill-rule:nonzero;stroke:none" transform="translate(354.312 31.37)"/><path d="M0 0h2.332v-6.254c0-.992.028-1.636.086-1.93.1-.472.337-.852.713-1.138.375-.286.889-.429 1.54-.429.662 0 1.16.135 1.496.405.336.271.539.603.607.997.068.394.102 1.047.102 1.961V0h2.332v-6.064c0-1.387-.063-2.367-.189-2.939-.126-.572-.359-1.056-.698-1.449-.338-.394-.791-.708-1.358-.942-.567-.233-1.308-.35-2.221-.35-1.103 0-1.939.128-2.509.383-.57.254-1.02.585-1.351.992A3.157 3.157 0 0 0 .229-9.09C.076-8.428 0-7.451 0-6.159Z" style="fill:#039;fill-opacity:1;fill-rule:nonzero;stroke:none" transform="translate(361.038 42.917)"/><path d="M0 0h-2.213v4.269c0 .903-.048 1.487-.142 1.752a1.239 1.239 0 0 1-.461.619c-.213.147-.469.22-.768.22-.383 0-.727-.105-1.032-.315a1.589 1.589 0 0 1-.626-.835c-.113-.346-.169-.987-.169-1.922V0h-2.214v8.364h2.056V7.136c.73.945 1.649 1.418 2.757 1.418a3.32 3.32 0 0 0 1.339-.264c.404-.176.71-.4.917-.674.208-.272.352-.583.434-.929.081-.346.122-.842.122-1.489Z" style="fill:#039;fill-opacity:1;fill-rule:nonzero;stroke:none" transform="translate(380.296 31.37)"/><path d="M382.541 39.735h2.213v-8.364h-2.213zm0 3.182h2.213v-2.048h-2.213z" style="fill:#039;fill-opacity:1;fill-rule:nonzero;stroke:none"/><path d="M0 0c0-.83.197-1.465.591-1.906.394-.442.879-.662 1.457-.662.577 0 1.062.22 1.453.662.392.441.587 1.082.587 1.922 0 .819-.195 1.449-.587 1.89a1.865 1.865 0 0 1-1.453.661c-.578 0-1.063-.22-1.457-.661C.197 1.465 0 .829 0 0m-2.268.118c0 .735.181 1.446.543 2.134a3.735 3.735 0 0 0 1.54 1.576c.664.362 1.406.543 2.225.543 1.266 0 2.303-.411 3.111-1.232.809-.823 1.213-1.861 1.213-3.116 0-1.265-.408-2.314-1.224-3.146-.817-.832-1.845-1.249-3.084-1.249-.767 0-1.498.174-2.194.52a3.578 3.578 0 0 0-1.587 1.524c-.362.67-.543 1.485-.543 2.446" style="fill:#039;fill-opacity:1;fill-rule:nonzero;stroke:none" transform="translate(388.779 35.553)"/><path d="M0 0h-2.213v4.269c0 .903-.048 1.487-.142 1.752a1.239 1.239 0 0 1-.461.619c-.213.147-.469.22-.768.22-.383 0-.727-.105-1.032-.315a1.589 1.589 0 0 1-.626-.835c-.113-.346-.169-.987-.169-1.922V0h-2.214v8.364h2.056V7.136c.73.945 1.649 1.418 2.757 1.418a3.32 3.32 0 0 0 1.339-.264c.404-.176.71-.4.917-.674.208-.272.352-.583.434-.929.081-.346.122-.842.122-1.489Z" style="fill:#039;fill-opacity:1;fill-rule:nonzero;stroke:none" transform="translate(404.485 31.37)"/><path d="M0 0h-4.077l-6.58 11.444h-.093c.13-2.022.196-3.463.196-4.325V0h-2.866v15.127h4.046l6.57-11.33h.072c-.103 1.966-.155 3.356-.155 4.17v7.16H0Z" style="fill:#039;fill-opacity:1;fill-rule:nonzero;stroke:none" transform="translate(37.042 23.529)"/><path d="M0 0c0-1.145.188-2.011.564-2.597.376-.586.988-.88 1.836-.88.842 0 1.447.292 1.817.875.368.583.553 1.45.553 2.602 0 1.145-.186 2.004-.559 2.576-.372.573-.983.859-1.831.859-.842 0-1.449-.285-1.821-.853C.186 2.012 0 1.152 0 0m7.998 0c0-1.883-.497-3.356-1.49-4.418-.993-1.062-2.376-1.594-4.149-1.594-1.111 0-2.09.243-2.938.73-.849.486-1.501 1.185-1.956 2.095-.455.911-.683 1.973-.683 3.187 0 1.89.493 3.359 1.48 4.408.986 1.048 2.373 1.573 4.159 1.573 1.111 0 2.09-.242 2.939-.725.848-.482 1.5-1.176 1.955-2.08.456-.903.683-1.962.683-3.176" style="fill:#039;fill-opacity:1;fill-rule:nonzero;stroke:none" transform="translate(43.116 29.333)"/><path d="M0 0c.428 0 .783-.031 1.066-.093L.828-3.052a3.661 3.661 0 0 1-.931.103c-1.008 0-1.792-.259-2.354-.776s-.844-1.242-.844-2.173v-5.887h-3.155V-.217h2.39l.465-1.946h.155A4.355 4.355 0 0 0-1.992-.595 3.582 3.582 0 0 0 0 0" style="fill:#039;fill-opacity:1;fill-rule:nonzero;stroke:none" transform="translate(60.178 35.314)"/><path d="M0 0c.552 0 1.214.121 1.987.362v-2.349C1.2-2.338.234-2.514-.911-2.514c-1.262 0-2.181.319-2.757.957-.576.638-.864 1.595-.864 2.871v5.577h-1.511v1.335l1.739 1.055.91 2.442h2.018V9.26h3.238V6.891h-3.238V1.314c0-.448.126-.78.378-.993C-.747.107-.414 0 0 0" style="fill:#039;fill-opacity:1;fill-rule:nonzero;stroke:none" transform="translate(68.217 25.836)"/><path d="M0 0h-3.156v6.757c0 1.669-.621 2.503-1.862 2.503-.883 0-1.521-.3-1.914-.9-.394-.6-.59-1.572-.59-2.918V0h-3.156v16.1h3.156v-3.28c0-.255-.024-.855-.073-1.801l-.072-.931h.165c.704 1.132 1.822 1.697 3.353 1.697 1.359 0 2.39-.366 3.094-1.097C-.352 9.957 0 8.909 0 7.543Z" style="fill:#039;fill-opacity:1;fill-rule:nonzero;stroke:none" transform="translate(83.22 23.529)"/><path d="M0 0c0-1.366-.492-2.442-1.474-3.228-.984-.787-2.351-1.18-4.103-1.18-1.614 0-3.042.304-4.284.911v2.98c1.021-.456 1.885-.776 2.593-.963.706-.186 1.353-.279 1.939-.279.704 0 1.244.135 1.62.404.376.269.564.669.564 1.2 0 .296-.083.56-.249.791-.165.231-.409.454-.729.668-.321.213-.974.555-1.961 1.024-.924.435-1.618.852-2.08 1.252-.462.4-.831.866-1.107 1.397s-.414 1.152-.414 1.862c0 1.339.454 2.39 1.361 3.156s2.161 1.149 3.761 1.149c.786 0 1.537-.094 2.25-.28a15.423 15.423 0 0 0 2.241-.786l-1.035-2.494c-.807.331-1.475.563-2.002.694a6.5 6.5 0 0 1-1.557.196c-.607 0-1.073-.141-1.397-.424-.325-.283-.487-.652-.487-1.107 0-.283.066-.53.197-.74.131-.21.34-.414.626-.61.286-.197.964-.55 2.033-1.061C-2.28 3.856-1.31 3.178-.786 2.499-.262 1.819 0 .987 0 0" style="fill:#039;fill-opacity:1;fill-rule:nonzero;stroke:none" transform="translate(101.151 27.73)"/><path d="M0 0c-.669 0-1.193-.212-1.573-.636-.379-.425-.596-1.026-.652-1.806h4.429c-.014.78-.217 1.381-.611 1.806C1.2-.212.669 0 0 0m.445-9.747c-1.863 0-3.318.514-4.366 1.542-1.049 1.028-1.573 2.483-1.573 4.366 0 1.939.484 3.437 1.454 4.496.969 1.059 2.308 1.588 4.019 1.588 1.635 0 2.908-.465 3.818-1.397.911-.931 1.366-2.217 1.366-3.859v-1.531h-7.46c.035-.897.3-1.597.797-2.101.496-.503 1.193-.755 2.09-.755.697 0 1.355.072 1.976.217a9.91 9.91 0 0 1 1.945.693v-2.441a7.44 7.44 0 0 0-1.769-.616c-.628-.134-1.393-.202-2.297-.202" style="fill:#039;fill-opacity:1;fill-rule:nonzero;stroke:none" transform="translate(108.436 33.068)"/><path d="m0 0-1.221-.041c-.917-.028-1.6-.193-2.049-.497-.448-.304-.672-.766-.672-1.387 0-.889.51-1.334 1.531-1.334.731 0 1.316.21 1.754.631.438.421.657.979.657 1.676Zm.931-5.36-.61 1.573H.238C-.293-4.456-.84-4.92-1.402-5.179c-.562-.258-1.295-.388-2.199-.388-1.11 0-1.985.318-2.622.952-.639.635-.958 1.538-.958 2.711 0 1.228.429 2.133 1.289 2.716.858.583 2.153.906 3.885.968L0 1.842v.507c0 1.173-.6 1.759-1.8 1.759-.925 0-2.011-.28-3.26-.838l-1.045 2.131c1.331.697 2.808 1.045 4.429 1.045 1.552 0 2.742-.338 3.569-1.014.828-.676 1.242-1.704 1.242-3.083V-5.36Z" style="fill:#039;fill-opacity:1;fill-rule:nonzero;stroke:none" transform="translate(122.58 28.888)"/></g></svg>
